<svg xmlns="http://www.w3.org/2000/svg" viewBox="42 52 212 240" role="img" aria-labelledby="t">
<title id="t">Escudo del Colegio San Francisco de Borja</title>
<path id="borde" d="M148 61C190 61 222 70 238 82Q245 88 245 104L245 145C245 200 205 250 148 282C91 250 51 200 51 145L51 104Q51 88 58 82C74 70 106 61 148 61Z" fill="#F9CB24"/>
<path id="campo" d="M148 71.01 C186.09 71.01 215.12 79.03 229.63 89.72 Q235.98 95.06 235.98 109.32 L235.98 145.85 C235.98 194.86 199.7 239.41 148 267.92 C96.3 239.41 60.02 194.86 60.02 145.85 L60.02 109.32 Q60.02 95.06 66.37 89.72 C80.88 79.03 109.91 71.01 148 71.01Z" fill="#D30128"/>
<clipPath id="c"><path d="M148 71.01 C186.09 71.01 215.12 79.03 229.63 89.72 Q235.98 95.06 235.98 109.32 L235.98 145.85 C235.98 194.86 199.7 239.41 148 267.92 C96.3 239.41 60.02 194.86 60.02 145.85 L60.02 109.32 Q60.02 95.06 66.37 89.72 C80.88 79.03 109.91 71.01 148 71.01Z"/></clipPath>
<g id="crismon" clip-path="url(#c)"><g fill="none" stroke="#FDF5CC" stroke-width="6.5"><path d="M63 169L200 230.5M233 169L96 230.5" stroke-linecap="round"/><path d="M148 160.3V272"/><path d="M125 163.5H158A10 10 0 0 1 158 183.5H148"/></g></g>
<g id="sfb" fill="#F9CB24"><path d="M102.7 139.5Q98.14 139.5 94.38 138.48Q90.62 137.46 87.01 134.93V124.93H93.42L94.3 130.82Q95.57 131.88 97.82 132.55Q100.06 133.22 102.7 133.22Q104.97 133.22 106.51 132.6Q108.05 131.98 108.86 130.83Q109.67 129.68 109.67 128.11Q109.67 126.63 108.94 125.48Q108.22 124.33 106.56 123.38Q104.9 122.42 102.06 121.55Q97.15 120.12 93.93 118.39Q90.7 116.67 89.09 114.28Q87.48 111.88 87.48 108.5Q87.48 105.14 89.35 102.57Q91.22 100.01 94.51 98.53Q97.81 97.06 102.11 97Q106.89 96.93 110.57 98.13Q114.25 99.33 116.92 101.45V110.76H110.7L109.62 105.08Q108.53 104.39 106.7 103.89Q104.87 103.38 102.55 103.38Q100.56 103.38 99.03 103.98Q97.51 104.58 96.63 105.72Q95.76 106.86 95.76 108.48Q95.76 109.85 96.52 110.9Q97.27 111.94 99.09 112.86Q100.9 113.78 104.06 114.82Q110.91 116.72 114.45 119.85Q117.99 122.98 117.99 128.06Q117.99 131.59 116.08 134.16Q114.17 136.73 110.73 138.11Q107.3 139.5 102.7 139.5Z"/><path d="M135.04 139.5V134.4L139.33 133.51V103.02L135.04 102.13V97H166.96V108.64H160.79L160.44 103.57H147.37V115.28H161.4V121.84H147.37V133.51L151.65 134.4V139.5Z"/><path d="M179.41 139.5V134.4L183.81 133.51V103.02L179.41 102.13V97H183.81H197.69Q204.95 97 209.02 99.92Q213.1 102.84 213.1 108.64Q213.1 111.58 211.58 113.91Q210.06 116.23 207.19 117.4Q209.66 117.94 211.3 119.35Q212.94 120.76 213.76 122.76Q214.59 124.77 214.59 127.12Q214.59 133.21 210.69 136.36Q206.79 139.5 199.65 139.5ZM192.05 132.97H199.65Q202.92 132.97 204.64 131.49Q206.36 130.01 206.36 127.13Q206.36 124.01 204.9 122.35Q203.43 120.7 200.27 120.7H192.05ZM192.05 114.8H197.98Q201.29 114.8 203.07 113.4Q204.85 112 204.85 109.32Q204.85 106.36 203.05 104.96Q201.24 103.56 197.69 103.56H192.05Z"/></g>
</svg>